<svg xmlns="http://www.w3.org/2000/svg" width="300" height="35" viewBox="0 0 300 35" fill="none"><g clip-path="url(#clip0_60_3)"><path d="M17.4961 14.2987L6.18525 0.0117188H0V34.9147H6.9109V12.3325L17.2773 26.0726L27.6436 12.3325V34.9147H34.5544V0.0117188H28.7954L17.4961 14.2987Z" fill="#252265"></path><path d="M71.4129 27.9341H39.1621V34.9146H71.4129V27.9341Z" fill="#252265"></path><path d="M71.4129 12.8093H39.1621V20.9533H71.4129V12.8093Z" fill="#252265"></path><path d="M71.4129 0.0117188H39.1621V6.99233H71.4129V0.0117188Z" fill="#252265"></path><path d="M73.7168 6.99233H87.5386V34.9147H94.4494V6.99233H108.271V0.0117188H73.7168V6.99233Z" fill="#252265"></path><path d="M117.485 0.0117188H110.574V34.9147H117.485V0.0117188Z" fill="#252265"></path><path d="M120.941 0.0117188V6.99233H140.291L118.51 34.9147H153.191V27.9342H133.645L155.392 0.0117188H120.941Z" fill="#252265"></path><path d="M159.239 2.68754C157.464 4.47923 156.647 6.66649 156.647 9.19114V11.0061C156.647 13.5307 157.464 16.0903 159.239 17.8704C161.013 19.6621 163.086 20.9418 165.562 20.9418H180.087C180.594 20.9418 181.031 20.7324 181.423 21.1163C181.78 21.4654 181.987 21.4886 181.987 22.0121V25.677C181.987 26.1889 181.78 26.7939 181.411 27.1779C181.042 27.5502 180.605 27.9224 180.087 27.9224H156.647V34.903H180.087C182.563 34.903 184.59 33.9607 186.364 32.1806C188.137 30.3889 188.898 28.19 188.898 25.677V22.0121C188.898 19.4875 188.126 17.277 186.352 15.4853C184.59 13.7169 182.563 12.7978 180.087 12.7978H165.562C165.056 12.7978 164.56 12.6582 164.191 12.2858C163.823 11.9135 163.557 11.5413 163.557 11.0061V9.19114C163.557 8.67923 163.823 8.08587 164.191 7.71358C164.56 7.34128 165.056 6.98061 165.562 6.98061H188.898V0H165.562C163.086 0 161.013 0.907479 159.239 2.6759V2.68754Z" fill="#252265"></path><path d="M213.995 0.0117188H203.123C200.116 0.0117188 197.594 1.10534 195.475 3.24606C193.355 5.38679 192.354 8.00452 192.354 11.0178V23.8505C192.354 26.8754 193.355 29.5281 195.475 31.6688C197.582 33.8095 200.116 34.9147 203.123 34.9147H213.995C216.979 34.9147 219.432 33.7979 221.563 31.6688C223.682 29.5281 224.604 26.887 224.604 23.8505V11.0178C224.604 8.00452 223.671 5.37515 221.552 3.23443C219.421 1.10534 216.967 0.0117188 213.995 0.0117188ZM199.264 11.0178C199.264 9.98239 199.713 8.9818 200.416 8.26048C201.153 7.52751 202.086 6.99233 203.111 6.99233H213.985C215.009 6.99233 215.274 7.52751 216.012 8.26048C216.737 8.9818 216.541 9.994 216.541 11.0178V23.8505C216.541 24.8859 216.737 25.9214 216 26.666C215.286 27.3873 215.009 27.9458 213.985 27.9458H203.111C202.086 27.9458 201.153 27.3989 200.427 26.6777C199.701 25.9331 199.253 24.8976 199.253 23.8505V11.0178H199.264Z" fill="#252265"></path><path d="M260.311 0.0117188H228.06V6.99233H260.311V0.0117188Z" fill="#252265"></path><path d="M231.193 16.0554C229.074 18.1961 228.06 20.8371 228.06 23.8504V34.9146H236.123V23.8504C236.123 22.8149 236.007 22.3728 236.71 21.6631C237.447 20.9301 237.815 20.965 238.841 20.965H260.311V12.821H238.841C235.835 12.821 233.301 13.9379 231.193 16.067V16.0554Z" fill="#252265"></path><path d="M263.766 0.0117188V6.99233H276.436V34.9147H283.347V6.99233H297.169V0.0117188H263.766Z" fill="#252265"></path><path fill-rule="evenodd" clip-rule="evenodd" d="M294.578 24.1646C291.778 24.1646 289.521 26.4333 289.521 29.2605C289.521 32.0992 291.778 34.3796 294.589 34.3796C297.388 34.3796 299.634 32.0992 299.634 29.2721C299.634 26.4449 297.388 24.1762 294.589 24.1646H294.578ZM294.543 33.5186C292.239 33.5186 290.361 31.6106 290.361 29.2721C290.361 26.9336 292.239 25.0022 294.554 25.0139C296.916 25.0139 298.793 26.8987 298.781 29.2837C298.781 31.6454 296.904 33.5186 294.543 33.5186ZM295.81 27.9923C295.717 27.4105 295.257 26.9568 294.67 26.9336C294.22 26.9103 293.783 26.9336 293.31 26.9336V31.5989H294.151V29.7142C294.151 29.7142 294.197 29.7142 294.22 29.7142C294.255 29.784 294.29 29.8538 294.312 29.9236C294.497 30.4355 294.67 30.9358 294.865 31.4477C294.889 31.5175 294.969 31.6106 295.026 31.6222C295.28 31.6454 295.533 31.6222 295.821 31.6222C295.568 30.9242 295.337 30.261 295.096 29.5862C295.729 29.2256 295.902 28.6671 295.799 28.004L295.81 27.9923ZM294.923 28.6438C294.797 28.83 294.578 28.8882 294.163 28.8067V27.7829C294.427 27.7829 294.704 27.6898 294.9 27.9574C295.015 28.1086 295.015 28.481 294.911 28.6438H294.923Z" fill="#252265"></path></g><defs><clipPath id="clip0_60_3"><rect width="300" height="35" fill="white"></rect></clipPath></defs></svg>